<svg id="Layer_1" data-name="Layer 1" xmlns="http://www.w3.org/2000/svg" viewBox="0 0 160.24 64.65"><defs><style>.cls-1,.cls-8{fill:#383434;}.cls-1,.cls-12,.cls-14,.cls-3,.cls-5{fill-rule:evenodd;}.cls-10,.cls-2,.cls-9{fill:none;stroke:#383434;stroke-miterlimit:10;}.cls-2{stroke-width:0.29px;}.cls-3,.cls-4{fill:#fff;}.cls-5{fill:#f2f4f5;}.cls-6{fill:#ac3838;}.cls-14,.cls-7{fill:#282828;}.cls-9{stroke-width:0.25px;}.cls-10{stroke-width:0.1px;}.cls-11{fill:#d03d42;}.cls-12,.cls-13{fill:#ab3438;}</style></defs><title>logo-from-guidelines</title><path class="cls-1" d="M27.49,42.06h1.32v.45H27.49v-.45" transform="translate(0.05 0)"/><path class="cls-1" d="M26.66,42.07v.43H25.39v-.43h1.27" transform="translate(0.05 0)"/><path class="cls-1" d="M22.3,40.15v.37H21v-.37H22.3" transform="translate(0.05 0)"/><path class="cls-1" d="M31,40.15h1.26v.38H31v-.38" transform="translate(0.05 0)"/><path class="cls-1" d="M24.55,41.42v-.36h1.33v.36H24.55" transform="translate(0.05 0)"/><path class="cls-1" d="M28.62,40.51v-.36H30v.36H28.62" transform="translate(0.05 0)"/><path class="cls-1" d="M29.09,41.42v-.37h1.33v.37H29.09" transform="translate(0.05 0)"/><path class="cls-1" d="M33.45,40.52v-.37h.68v.37h-.68" transform="translate(0.05 0)"/><path class="cls-2" d="M24.44,18.6c-.18,1.84-.68,3.3-1.1,3.26s-.62-1.57-.43-3.41.67-3.31,1.1-3.27S24.62,16.75,24.44,18.6Z" transform="translate(0.05 0)"/><path class="cls-2" d="M23.15,19c-1.5-1.09-2.52-2.25-2.27-2.59s1.67.25,3.17,1.34,2.52,2.25,2.27,2.59S24.65,20.11,23.15,19Z" transform="translate(0.05 0)"/><path class="cls-2" d="M24,19.22c-1.75.62-3.28.8-3.42.4s1.15-1.23,2.9-1.85,3.28-.81,3.42-.41S25.72,18.59,24,19.22Z" transform="translate(0.05 0)"/><path class="cls-1" d="M24,18.49a.27.27,0,1,1-.54,0,.27.27,0,1,1,.54,0" transform="translate(0.05 0)"/><path class="cls-1" d="M27.34,11.73A15.8,15.8,0,0,0,11.58,27.58,16,16,0,0,0,27.41,43.45,16,16,0,0,0,43.17,27.56,15.8,15.8,0,0,0,27.34,11.73M14.79,19.19q-1,6.19-2,12.39A14.63,14.63,0,0,1,14.79,19.19Zm.54,6,.37.28c-.28.45-.6.55-.93.24ZM14.94,24s0-.06.05-.08l.17-.14.33.3C15.27,24.34,15.27,24.34,14.94,24Zm2-2.4a3.9,3.9,0,0,1-1.11-.65c0-.22-.07-.43-.08-.54s-.06-.28-.11-.53a3.75,3.75,0,0,1,1.26-1.1,4.07,4.07,0,0,0-.21,1.37A3.73,3.73,0,0,0,17,21.58Zm-2,6.7-1,.61c.06-.42.11-.73.17-1.13Zm-.49-1,.61-.48,1,.81c-.26.26-.5.42-.84.14S14.72,27.43,14.43,27.25ZM15,31a.32.32,0,0,1,.27,0l1.25.8a.14.14,0,0,1,0,.07H13.83C14.26,31.55,14.61,31.26,15,31Zm-1.49.36c.08-.5.14-.89.22-1.34l.82.54Zm3.29-1.77c.12.65.23,1.23.35,1.9l-1.53-1Zm-1,0c-.81.64-.81.64-1.67-.09a6.53,6.53,0,0,1,1.36-.75c.22-.07.56.22.9.38Zm.16-3-.32-.27.53-.34c.05.33.1.59.16.92ZM14.18,35c-.4-.8-.79-1.62-1.2-2.47h4.85a6.92,6.92,0,0,1-3.36,2.55C14.38,35.13,14.21,35.09,14.18,35Zm3.89-1.78.09,0v2.4s0,.09,0,.17l-.42,0c0-.73,0-1.44,0-2.14C17.73,33.57,18,33.41,18.07,33.25Zm-.82.94v1.69h-.52A1.27,1.27,0,0,1,17.25,34.19Zm-1,.81v.87h-.51C15.59,35.31,15.6,35.3,16.22,35Zm-1.59.74.6-.23v.39l-.59,0S14.63,35.78,14.63,35.74Zm5.66,5.2c-.86-.33-.95-.55-.75-1.71h.71c0,.08,0,.15,0,.22Zm.06-2.15h-1c-.25,0-.25,0-.23-.35H20.6C20.68,38.71,20.6,38.8,20.35,38.79Zm-1-1,.48-.37.49.37a1.64,1.64,0,0,1-.51.23C19.7,38,19.54,37.84,19.39,37.76Zm15.29,3c0,.1-.15.22-.26.27-.82.36-1.65.7-2.47,1-.3.13-.61.24-.87.34-.39-.63-.95-.17-1.48-.4.06.29.09.47.13.67a15.51,15.51,0,0,1-5.17-.09c0-.16,0-.3-.06-.51H23.3a2.29,2.29,0,0,1-.69-.08c-.56-.19-1.12-.42-1.67-.66a.4.4,0,0,1-.23-.29c0-.44,0-.89,0-1.36h14A9.68,9.68,0,0,1,34.68,40.73Zm.45-.17V39.21h.71C36,40,35.92,40.21,35.13,40.56Zm.92-1.8c-.39,0-.77,0-1.15,0-.06,0-.12-.11-.18-.18s.13-.15.2-.16a5.42,5.42,0,0,1,.57,0,3.25,3.25,0,0,1,.54,0c.08,0,.14.12.22.18S36.12,38.75,36.05,38.76Zm-1.06-1a1.63,1.63,0,0,1,.52-.24c.15,0,.3.15.46.24l-.5.33Zm1.34,2.07v-.6l.35-.06c-.13-.42.19-.9-.29-1.29,0-.49-.31-.8-.9-.8a.8.8,0,0,0-.92.87c-.55.2-.11.69-.34,1H21.05c0-.2,0-.39,0-.58s.07-.34-.19-.39c0,0-.07-.14-.08-.22-.05-.43-.38-.68-.9-.68s-.89.26-.92.71c0,0,0,.1,0,.14a1.46,1.46,0,0,0-.23,1.21l.36.08v1a14.85,14.85,0,0,1-3.85-3.61h24.3A15.22,15.22,0,0,1,36.33,39.81Zm-17.62-4V32.77c.61.18.61.18.61.77v2.32Zm1,0V33.16c.29.1.52.17.74.26.06,0,.15.12.15.18,0,.75,0,1.5,0,2.27Zm4.64-2.42c0-.57,0-1.15,0-1.72,0-.2,0-.36-.28-.36h-2v1.94c-.74-.08-.74-.08-.74-.73,0-1.63,0-3.25,0-4.87a.52.52,0,0,1,.18-.4c1-.49,2.05-.95,3.09-1.42a1.63,1.63,0,0,1,.23-.07v8C24.42,33.94,24.38,33.9,24.38,33.45Zm.3,1v1.44H24.1V34.33Zm-1.47-.8-.49-.13V32c1-.16,1-.16,1,.82v.88Zm.46,2.24h-.5V34.21c.49,0,.5,0,.5.45Zm-1-1.33v1.33H22.1V34C22.7,34,22.72,34,22.72,34.54Zm-1.06-.29c0,.49,0,1,0,1.49a.46.46,0,0,1,0,.13h-.52V33.65C21.66,33.73,21.66,33.73,21.66,34.25Zm7.79-.67c0,.48,0,.48-.54.45,0-.76,0-1.5,0-2.24,0-.31-.08-.44-.41-.43-.58,0-1.17,0-1.84,0v2.72L25.53,34v-.7c0-1.84,0-3.68,0-5.52a.47.47,0,0,1,.34-.53c1.06-.44,2.1-.92,3.14-1.38l.44-.16Zm.28.93v1.35h-.67V34.6Zm-2.47-.39V32h1c0,.66,0,1.3,0,1.94,0,.06-.13.16-.2.16C27.82,34.13,27.55,34.12,27.26,34.12Zm.47.54v1.2h-.47v-1.2Zm.45,0,.41-.06v1.27h-.41Zm-1.37,0v1.26h-.57V34.62Zm-1-.08v1.33h-.64V34.5Zm7.41-8.67c.13-.06.26-.1.43-.16a2.47,2.47,0,0,1,0,.35c0,2.2,0,4.4,0,6.6,0,.3-.09.46-.44.45,0-.48,0-1,0-1.41,0-.23-.08-.33-.31-.33H31v2.42l-.91.16V32.81c0-1.76,0-3.52,0-5.29a.46.46,0,0,1,.33-.51C31.32,26.65,32.24,26.25,33.17,25.87Zm-1.41-.13c.09-1.51.18-2.95.26-4.39h.09c.13,1.31.25,2.62.37,3.94,0,.07-.08.18-.15.22A5.33,5.33,0,0,1,31.76,25.74Zm2,7.69v2.43H33.1a18,18,0,0,1,0-2C33.15,33.74,33.52,33.61,33.79,33.43Zm-2.25.24V32h1.05c0,.41,0,.81,0,1.22a.3.3,0,0,1-.19.19C32.13,33.52,31.86,33.59,31.54,33.67Zm.19.39v1.81h-.48a13.38,13.38,0,0,1,0-1.42C31.28,34.33,31.51,34.23,31.73,34.06Zm.45.13c0-.11.27-.21.49-.36v2h-.51C32.16,35.3,32.13,34.75,32.18,34.19Zm-1.37.17v1.51h-.6V34.46Zm3.41-.89c0-.09.16-.2.27-.27A5.6,5.6,0,0,1,35,33v2.91h-.82C34.21,35.05,34.2,34.26,34.22,33.47Zm1.22,2.39V33.21c0-.55,0-.55.6-.79v3.44Zm1.16,0V33.38c.66.53.78,1.06.57,2.49Zm1.06,0V34.55c.53.21.59.39.46,1.32Zm.94,0v-.68c.24.22.65.22.54.68Zm1.8-.37a7.57,7.57,0,0,1-3.7-3.29h5.2Zm1.26-4c-1.68,0-3.35,0-5,.05a1.44,1.44,0,0,0-.6.18c-.57.3-1.12.63-1.76,1v-8l-1.16.42c-.07-.7-.14-1.35-.2-2-.16-1.7-.33-3.41-.48-5.12,0-.17-.23-.41.06-.53a1.9,1.9,0,0,1,.81-.17,1.54,1.54,0,0,1,.65.3,1.62,1.62,0,0,0,2.28-.5.88.88,0,0,0,.14-.43.48.48,0,0,0-.19-.36c-.07-.05-.24,0-.35.09s-.11.1-.17.15a1,1,0,0,1-1.44,0,2,2,0,0,0-1.71-.57,1.17,1.17,0,0,0-1,1.66,1.29,1.29,0,0,1,0,.56c-.14,2.46-.29,4.92-.43,7.39,0,.22-.08.35-.3.41s-.5.18-.79.3V24.77l-4.51,1.87V24.83l-.39.16-3.87,1.67a.75.75,0,0,0-.54.8c0,1.65,0,3.3,0,4.95v.49a1,1,0,0,1-.28,0L18.58,32a1,1,0,0,0-.45-.07c-.2,0-.3-.05-.34-.26-.59-3.27-1.18-6.53-1.78-9.8,0,0,0-.25-.09-.51a5.6,5.6,0,0,0,1.34.64.39.39,0,0,0,.23.07c.45,0,.71-.71.78-1.53.31-.07.52-.21.52-.36s-.21-.3-.52-.37c-.05-.85-.32-1.62-.78-1.62a.42.42,0,0,0-.24.07,5.28,5.28,0,0,0-1.68,1.22,5.77,5.77,0,0,0-.13-.58h-.52l.23-.36a14.82,14.82,0,0,1,13.18-6.13,15.06,15.06,0,0,1,14,12.53,15.44,15.44,0,0,1-.2,6.24A.39.39,0,0,1,41.66,31.54ZM17.8,19.76a1.65,1.65,0,0,0-.81.18c0-.9.31-1.47.5-1.47s.43.5.49,1.3Zm.18.82c-.08.75-.31,1.21-.49,1.21s-.44-.53-.49-1.37a1.73,1.73,0,0,0,.8.17Z" transform="translate(0.05 0)"/><path class="cls-1" d="M22.3,40.15v.37H21v-.37H22.3" transform="translate(0.05 0)"/><path class="cls-1" d="M24.81,40.15v.37H23.54v-.37h1.27" transform="translate(0.05 0)"/><path class="cls-1" d="M27.34,40.15v.37H26.07v-.37h1.27" transform="translate(0.05 0)"/><path class="cls-1" d="M32.67,41.06v.37H31.4v-.37h1.27" transform="translate(0.05 0)"/><path class="cls-1" d="M23.54,41.05v.37H22.27v-.37h1.27" transform="translate(0.05 0)"/><path class="cls-1" d="M24.55,41.42v-.36h1.33v.36H24.55" transform="translate(0.05 0)"/><path class="cls-1" d="M26.85,41.42v-.36h1.33v.36H26.85" transform="translate(0.05 0)"/><path class="cls-3" d="M8.49,40.28v.46H7.23a1,1,0,0,1-.67.68v1H6.13v-1a1,1,0,0,1-.79-.71h-1v-.46h1a1.17,1.17,0,0,1,.1-.26l-.69-.7L5.06,39l.67.67a.94.94,0,0,1,.4-.16v-.92h.43v.95a1.07,1.07,0,0,1,.38.2L7.65,39l.33.33-.78.77a.88.88,0,0,1,0,.15Z" transform="translate(0.05 0)"/><path class="cls-4" d="M1.42,26.55s1.19,2.31,2.94,0c0,0,.25,1.76-1.05,2H2.46s-1.37-.24-1-2Z" transform="translate(0.05 0)"/><path class="cls-4" d="M7.3,13.79,7,14.62l-.18-.18-.33.33a1,1,0,1,1-.27-.32l.36-.34-.18-.19Z" transform="translate(0.05 0)"/><path class="cls-4" d="M14.05,4.66v.47A.92.92,0,0,1,15.18,6a.83.83,0,0,1-1,1v.48H16v.42h-.14v.47h.6V7.9h-.08V7.45h1.15V6.9H17V7h-.69V6.36H16v.69h-.7A1.49,1.49,0,0,0,15,4.89a1.28,1.28,0,0,0-.93-.23" transform="translate(0.05 0)"/><path class="cls-4" d="M27.6,4.16v.43h.52V5H27.6v.67h-.41V5h-.52v-.4h.52V4.16a1,1,0,0,1-.35-1.9,1.54,1.54,0,0,1-.44-.42v0l.31-.25a.84.84,0,0,0,1.28,0l.29.3a1.93,1.93,0,0,1-.41.33,1,1,0,0,1,.57.92,1,1,0,0,1-.84,1" transform="translate(0.05 0)"/><path class="cls-4" d="M40.31,6.63a.78.78,0,0,1-.22,0,.76.76,0,0,1-.21,0Z" transform="translate(0.05 0)"/><path class="cls-4" d="M51.1,16.12a1.63,1.63,0,0,1-.47.28c-1,.11-1-1-1.22-1.25a.31.31,0,0,0-.48,0l-.48.38V16.6h-.4V13.69h-.21v-.42h.81v.42h-.2V15l.54-.34a.59.59,0,0,1,.78.34c.29.58.44,1.49,1.11.82Z" transform="translate(0.05 0)"/><path class="cls-5" d="M47.29,41.24a.26.26,0,0,1-.19-.06.33.33,0,0,0,.19.06" transform="translate(0.05 0)"/><path class="cls-4" d="M50.32,40.88a.36.36,0,0,1-.72,0,.36.36,0,0,1,.19-.31,1.5,1.5,0,0,0-.21-1.41,1.18,1.18,0,0,0-1.19-.55,1.41,1.41,0,0,0-1,1.21,1.36,1.36,0,0,0,0,.72.36.36,0,0,1-.09.7h0a.33.33,0,0,1-.19-.06h0a.36.36,0,0,1-.15-.3.33.33,0,0,1,0-.17,2.61,2.61,0,0,1-.08-.88,1.8,1.8,0,0,1,1.78-1.65,1.86,1.86,0,0,1,1.6,2c0,.15,0,.33,0,.5a.35.35,0,0,1,.08.22" transform="translate(0.05 0)"/><path class="cls-4" d="M50.09,26.82a.37.37,0,0,1,.37-.36.36.36,0,0,1,.35.36.34.34,0,0,1-.19.31,1.5,1.5,0,0,0,.22,1.41,1.18,1.18,0,0,0,1.19.55,1.43,1.43,0,0,0,1-1.21,1.59,1.59,0,0,0,0-.72.35.35,0,0,1-.27-.34.36.36,0,0,1,.36-.36h0a.31.31,0,0,1,.19.06h0a.35.35,0,0,1,.16.3.47.47,0,0,1,0,.17,2.6,2.6,0,0,1,.07.88,1.79,1.79,0,0,1-1.77,1.65,1.85,1.85,0,0,1-1.6-2c0-.15,0-.33,0-.5a.35.35,0,0,1-.08-.22" transform="translate(0.05 0)"/><path class="cls-6" d="M8.74,26.23l.64.47L9,26.86l-.29-.18Zm.67.9-.32-.21,1.53-.68v.46l-.8.35.13.09Zm1.17.53-1.87-.05v-.43l1.87,0Z" transform="translate(0.05 0)"/><path class="cls-6" d="M9.28,25.91c-.33,0-.48-.27-.44-.68l.3,0a.19.19,0,0,0,.18.21l.94.12a.19.19,0,0,0,.22-.16l.3,0c-.07.41-.29.59-.65.55ZM9.37,25a.19.19,0,0,0-.22.17l-.31,0c.06-.42.26-.61.62-.57l.85.11c.36,0,.52.28.48.7l-.3,0a.19.19,0,0,0-.18-.21Z" transform="translate(0.05 0)"/><path class="cls-6" d="M11,23.61l-1,.24L9.3,23.7l1-.24Zm-1.82.1,1.82.43-.09.39-1.83-.42Zm.22-.95,1.83.43-.09.4-1.83-.43Z" transform="translate(0.05 0)"/><path class="cls-6" d="M10.34,22.13l.17-.51.3.1-.17.51Zm-.7-.23.17-.54.3.1L9.94,22Zm2,.05-.18.53-.31-.1.18-.53Zm-2,0,1.79.59-.14.41-1.78-.59Z" transform="translate(0.05 0)"/><path class="cls-6" d="M10.11,20.6l1.72.77-.18.39L9.94,21Zm.79.1a.23.23,0,0,0,0-.16.25.25,0,0,0-.13-.11.31.31,0,0,0-.18,0,.19.19,0,0,0-.11.12l-.07.14-.28-.13,0-.13c.18-.4.43-.53.73-.39a.67.67,0,0,1,.24.17.26.26,0,0,1,0,.23.37.37,0,0,1,.46-.07l.37.18.09,0h.08L12,21l-.13,0-.39-.18c-.15-.06-.25,0-.3.08l-.06.14-.29-.13Z" transform="translate(0.05 0)"/><path class="cls-6" d="M12.59,19.84c-.2.37-.47.47-.79.3l-1.2-.61.2-.39,1.26.64a.19.19,0,0,0,.26-.07Zm-.24-.2a.28.28,0,0,0,0-.15.23.23,0,0,0-.11-.11L11,18.74l.2-.4,1.21.61c.32.17.4.44.21.83Z" transform="translate(0.05 0)"/><path class="cls-6" d="M12.19,16.88,13.71,18l-.25.35-1.52-1.1Zm1.86.63-.29.41-.26-.19.3-.4Z" transform="translate(0.05 0)"/><polygon class="cls-6" points="13.36 15.45 15.1 16.3 14.8 16.65 14.45 16.46 14.2 16.75 14 16.5 14.16 16.3 13.49 15.92 14.39 17.13 14.12 17.45 12.99 15.87 13.36 15.45"/><path class="cls-6" d="M14.83,13.89l.12.78-.37-.13-.08-.34ZM14.67,15l-.08-.36,1.57.59-.34.32L15,15.23l0,.15Zm.46,1.21-1.3-1.35.31-.3,1.31,1.35Z" transform="translate(0.05 0)"/><path class="cls-6" d="M16.14,13.46a.2.2,0,0,0-.28-.06l-.2-.25c.33-.25.61-.23.82,0Zm.09,1a.25.25,0,0,0,.36.07l.2.25a.57.57,0,0,1-.89-.06Zm.84-.51c.19.24.12.49-.2.77l-.2-.26c.1-.09.13-.18.07-.25a.27.27,0,0,0-.19-.06h-.38l-.34,0A.6.6,0,0,1,15.4,14c-.2-.25-.14-.5.17-.77l.2.25a.24.24,0,0,0-.08.13.27.27,0,0,0,.05.13.12.12,0,0,0,.13,0h.73A.51.51,0,0,1,17.07,13.91Z" transform="translate(0.05 0)"/><path class="cls-6" d="M17.87,13.88l-.37.23-1-1.6.36-.22Zm-.63-1.82.37-.24,1,1.6-.37.23L17.8,13l-.3.18-.17-.26.31-.19Z" transform="translate(0.05 0)"/><path class="cls-6" d="M18.31,11.39l.84,1.68-.37.18L18,11.57Zm1.25-.62.83,1.68-.36.18L19.19,11Zm-.07,2.13-.77-.79-.37-.74.11-.06.87,1L19,11l.12-.06.37.76.15,1.08Z" transform="translate(0.05 0)"/><polygon class="cls-6" points="20.83 10.26 21.96 11.83 21.54 11.99 21.32 11.66 20.97 11.8 20.91 11.48 21.14 11.39 20.72 10.74 20.95 12.22 20.56 12.38 20.31 10.46 20.83 10.26"/><rect class="cls-6" x="21.72" y="9.9" width="0.44" height="1.88" transform="translate(-2.3 7.81) rotate(-19.17)"/><polygon class="cls-6" points="23.22 9.54 24.11 11.26 23.66 11.36 23.49 11 23.13 11.08 23.12 10.76 23.36 10.71 23.05 10 23.05 11.5 22.63 11.6 22.68 9.66 23.22 9.54"/><path class="cls-6" d="M24.61,11.15l-.43,0L24,9.34l.43-.06Zm.2-1.92.43-.05L25.47,11l-.43.05-.1-.81-.36.05,0-.31.35,0Z" transform="translate(0.05 0)"/><path class="cls-6" d="M27,9.81h.53v.31H27Zm0-.75h.56v.32H27Zm.6,1.87H27v-.32h.57ZM26.9,9.07l0,1.87h-.43l0-1.87Z" transform="translate(0.05 0)"/><path class="cls-6" d="M28.41,9.09l.22,0c.4,0,.59.22.56.57l-.07.81c0,.36-.24.52-.65.49l-.22,0,0-.32h.15a.31.31,0,0,0,.18,0,.19.19,0,0,0,.07-.12l.07-.88a.17.17,0,0,0-.05-.15.24.24,0,0,0-.17-.06h-.15Zm-.07,0L28.19,11l-.43,0,.16-1.87Z" transform="translate(0.05 0)"/><path class="cls-6" d="M29.91,11.16c-.41-.09-.58-.32-.51-.68l.25-1.32.43.08-.26,1.39a.18.18,0,0,0,.15.23Zm.13-.29a.24.24,0,0,0,.15,0,.19.19,0,0,0,.07-.14l.26-1.39.44.09-.25,1.33c-.07.36-.31.5-.73.43Z" transform="translate(0.05 0)"/><path class="cls-6" d="M32,9.58c.42.1.58.32.51.65l0,.17L32,10.3l0-.19a.17.17,0,0,0-.14-.23Zm-.37,1.61a.17.17,0,0,0,.22-.13l.06-.26.44.11,0,.19c-.08.35-.33.47-.74.38Zm-.43-1.27q.12-.47.72-.36l-.07.3a.17.17,0,0,0-.21.14l-.23.95a.18.18,0,0,0,.13.22l-.07.29c-.39-.1-.55-.33-.47-.67Z" transform="translate(0.05 0)"/><polygon class="cls-6" points="33.86 10.18 33.73 12.11 33.3 11.97 33.33 11.57 32.98 11.45 33.13 11.17 33.37 11.25 33.47 10.48 32.7 11.77 32.29 11.64 33.33 10 33.86 10.18"/><path class="cls-6" d="M35.5,10.91l-.13.29-1.21-.56.13-.28Zm-1,0,.39.17-.62,1.36-.39-.18Z" transform="translate(0.05 0)"/><rect class="cls-6" x="34.54" y="11.73" width="1.88" height="0.44" transform="translate(8.79 38.15) rotate(-63.03)"/><path class="cls-6" d="M36.15,11.78c.17-.29.44-.34.81-.14l-.16.27a.18.18,0,0,0-.26.08l-.47.82a.18.18,0,0,0,.06.26l-.15.27c-.36-.23-.44-.5-.26-.81Zm.78.43a.18.18,0,0,0-.06-.26l.15-.27c.37.21.47.47.29.78l-.43.75c-.18.31-.46.37-.84.17l.16-.27a.17.17,0,0,0,.26-.08Z" transform="translate(0.05 0)"/><path class="cls-6" d="M37.61,14.25l.18-1,.38-.53L38,13.73Zm.61-1.72-1.11,1.52-.32-.24,1.1-1.52Zm.79.57-1.1,1.52-.33-.24,1.1-1.52Z" transform="translate(0.05 0)"/><path class="cls-6" d="M39.83,14.83l.39.36-.22.23-.38-.37Zm.52-.54.41.39-.22.23-.41-.39Zm-.05,0L39,15.61l-.32-.3L40,13.94Z" transform="translate(0.05 0)"/><path class="cls-6" d="M40.62,15.24c.26-.22.52-.18.81.13l-.24.2a.16.16,0,0,0-.26,0l-.72.62a.18.18,0,0,0,0,.27l-.23.2c-.26-.33-.25-.61,0-.85Zm.6.66a.18.18,0,0,0,0-.27l.23-.2c.28.32.28.6,0,.83l-.65.56c-.27.24-.56.2-.84-.11l.23-.2a.18.18,0,0,0,.27,0Z" transform="translate(0.05 0)"/><path class="cls-6" d="M40.92,17.86A.54.54,0,0,1,41,17l1.1-.77.25.36-1.15.81a.19.19,0,0,0-.06.27Zm.29-.11a.23.23,0,0,0,.13.08.19.19,0,0,0,.15,0L42.64,17l.26.36-1.11.78c-.3.21-.58.14-.83-.2Z" transform="translate(0.05 0)"/><path class="cls-6" d="M42.08,19.34l.59-.89.56-.33-.59.89ZM43.33,18,41.71,19l-.2-.35,1.62-.94Zm.5.85-1.63.95-.2-.35,1.62-.95Z" transform="translate(0.05 0)"/><path class="cls-6" d="M44.24,19.67l.09.2c.17.37.09.63-.23.77l-.74.34c-.32.15-.57,0-.74-.33l-.09-.19.29-.14.06.14a.28.28,0,0,0,.11.14.17.17,0,0,0,.14,0l.8-.37c.06,0,.1-.06.11-.11a.31.31,0,0,0,0-.18L44,19.8Zm0-.06-1.71.78L42.32,20,44,19.22Z" transform="translate(0.05 0)"/><polygon class="cls-6" points="45.09 21.6 43.51 22.73 43.35 22.31 43.68 22.08 43.54 21.73 43.86 21.68 43.95 21.91 44.6 21.49 43.11 21.72 42.96 21.32 44.88 21.08 45.09 21.6"/><path class="cls-6" d="M45.55,23.37l-.31.08-.35-1.29.3-.08Zm-.61-.76.11.42-1.44.4L43.5,23Z" transform="translate(0.05 0)"/><rect class="cls-6" x="43.79" y="23.8" width="1.88" height="0.44" transform="translate(-4.22 10.71) rotate(-13.03)"/><path class="cls-6" d="M45.31,24.49c.33,0,.53.15.59.56l-.3,0a.18.18,0,0,0-.22-.15l-.94.11a.19.19,0,0,0-.18.21l-.3,0c0-.42.13-.65.5-.69Zm.13.88a.17.17,0,0,0,.17-.21l.31,0c0,.43-.1.66-.46.7l-.85.11c-.36,0-.58-.15-.64-.57l.3,0a.2.2,0,0,0,.23.16Z" transform="translate(0.05 0)"/><path class="cls-6" d="M44.28,27.14l.94-.5h.66l-1,.49ZM46,26.57l-1.88.05v-.41l1.87,0Zm0,1-1.87,0v-.41l1.87,0Z" transform="translate(0.05 0)"/><polygon class="cls-6" points="8.88 33.43 10.34 32.9 10.4 33.09 9.68 33.35 10.66 33.82 10.76 34.08 9.95 33.68 9.31 34.63 9.22 34.37 9.77 33.59 9.45 33.44 8.95 33.62 8.88 33.43"/><polygon class="cls-6" points="9.35 34.8 10.76 34.16 10.84 34.35 10.07 35.59 11.18 35.09 11.26 35.27 9.85 35.9 9.77 35.71 10.54 34.47 9.43 34.97 9.35 34.8"/><path class="cls-6" d="M10.6,35.83a.8.8,0,0,1,.63-.08.7.7,0,0,1,.43.38.78.78,0,0,1,.08.39.7.7,0,0,1-.14.36,1,1,0,0,1-.34.27,1.07,1.07,0,0,1-.41.1.81.81,0,0,1-.38-.12.91.91,0,0,1-.25-.3.68.68,0,0,1-.07-.39.64.64,0,0,1,.14-.36A.76.76,0,0,1,10.6,35.83Zm.09.19a.59.59,0,0,0-.33.33.49.49,0,0,0,0,.41.55.55,0,0,0,.31.27.71.71,0,0,0,.48-.07,1,1,0,0,0,.27-.21.5.5,0,0,0,.11-.26.54.54,0,0,0-.05-.28.53.53,0,0,0-.3-.27A.66.66,0,0,0,10.69,36Z" transform="translate(0.05 0)"/><path class="cls-6" d="M10.88,37.92,12,36.75l.11.18-.73.74-.23.22.28-.09,1-.31.13.21-.54.6c-.14.15-.27.28-.4.4l.33-.12,1-.33.11.18-1.53.47-.11-.17.83-.9.12-.14-.18.05L11,38.1Z" transform="translate(0.05 0)"/><polygon class="cls-6" points="11.93 39.37 13.14 38.41 13.26 38.58 12.19 39.42 12.66 40.02 12.52 40.13 11.93 39.37"/><polygon class="cls-6" points="12.69 40.31 13.85 39.3 14.59 40.14 14.45 40.26 13.85 39.57 13.49 39.88 14.05 40.53 13.92 40.65 13.36 40 12.96 40.35 13.58 41.06 13.45 41.18 12.69 40.31"/><path class="cls-6" d="M13.6,41.38l1.08-1.12.38.37a1.36,1.36,0,0,1,.18.21.54.54,0,0,1,.09.24.67.67,0,0,1-.05.31,1.21,1.21,0,0,1-.21.31,2,2,0,0,1-.25.2l-.23.09h-.2a.65.65,0,0,1-.38-.23Zm.28,0,.24.23a.54.54,0,0,0,.19.14.28.28,0,0,0,.15,0,.49.49,0,0,0,.22-.06.94.94,0,0,0,.24-.19.83.83,0,0,0,.2-.32.44.44,0,0,0,0-.26,1.1,1.1,0,0,0-.17-.21l-.23-.22Z" transform="translate(0.05 0)"/><path class="cls-6" d="M15.67,42.42l.11-.15.52.4-.35.45a1,1,0,0,1-.35,0,1.4,1.4,0,0,1-.3-.15A1,1,0,0,1,15,42.6a.62.62,0,0,1,0-.4.86.86,0,0,1,.17-.38,1.13,1.13,0,0,1,.34-.28.6.6,0,0,1,.39-.06.86.86,0,0,1,.38.17.76.76,0,0,1,.21.23.45.45,0,0,1,.07.25.74.74,0,0,1-.06.27l-.18-.07a.64.64,0,0,0,.05-.2A.41.41,0,0,0,16.3,42a.56.56,0,0,0-.15-.16.75.75,0,0,0-.21-.12.45.45,0,0,0-.2,0,.32.32,0,0,0-.17.06.79.79,0,0,0-.24.21.8.8,0,0,0-.16.32.57.57,0,0,0,0,.29.67.67,0,0,0,.19.22.55.55,0,0,0,.24.12.45.45,0,0,0,.22,0l.17-.23Z" transform="translate(0.05 0)"/><polygon class="cls-6" points="16.12 43.47 17.02 42.21 17.93 42.86 17.82 43.01 17.08 42.48 16.8 42.87 17.5 43.36 17.39 43.51 16.7 43.01 16.39 43.44 17.16 43.99 17.06 44.14 16.12 43.47"/><path class="cls-6" d="M18.78,43.7l.11-.11.17.19a2.55,2.55,0,0,1,.1-.24l.13.07a1.54,1.54,0,0,1-.14.22l.27,0,0,.16-.26-.07c0,.06,0,.14.07.26l-.15,0q0-.1,0-.27l-.22.14L18.74,44l.24-.1Z" transform="translate(0.05 0)"/><polygon class="cls-6" points="20.19 45.72 20.77 44.28 20.96 44.36 20.45 45.63 21.16 45.91 21.09 46.08 20.19 45.72"/><polygon class="cls-6" points="21.33 46.15 21.74 44.66 22.81 44.96 22.77 45.13 21.89 44.89 21.76 45.35 22.58 45.58 22.53 45.75 21.71 45.52 21.57 46.03 22.48 46.28 22.43 46.46 21.33 46.15"/><path class="cls-6" d="M22.5,46.49l.93-1.37.22.05.26,1.65-.23,0-.07-.5L23,46.12l-.27.42Zm.57-.52.52.12-.06-.45c0-.14,0-.25,0-.34a1.82,1.82,0,0,1-.15.27Z" transform="translate(0.05 0)"/><path class="cls-6" d="M24.06,46.86l.18-1.54.53.07a1.19,1.19,0,0,1,.27,0,.54.54,0,0,1,.22.13.73.73,0,0,1,.15.29,1.12,1.12,0,0,1,0,.37,1.29,1.29,0,0,1-.07.31,1.07,1.07,0,0,1-.13.21.83.83,0,0,1-.16.12.53.53,0,0,1-.19.06h-.25Zm.23-.16.33,0h.24a.26.26,0,0,0,.14-.06.55.55,0,0,0,.14-.19.73.73,0,0,0,.07-.29.75.75,0,0,0,0-.38.4.4,0,0,0-.17-.19.84.84,0,0,0-.26-.07l-.32,0Z" transform="translate(0.05 0)"/><polygon class="cls-6" points="25.66 47.03 25.78 45.49 26.89 45.58 26.88 45.76 25.97 45.69 25.94 46.16 26.79 46.23 26.77 46.41 25.92 46.34 25.88 46.87 26.83 46.94 26.81 47.12 25.66 47.03"/><path class="cls-6" d="M27.05,47.14,27,45.59l.68,0a.73.73,0,0,1,.32,0,.29.29,0,0,1,.17.14.49.49,0,0,1,.08.23.4.4,0,0,1-.1.28.51.51,0,0,1-.32.15l.12.08a.88.88,0,0,1,.18.2l.28.41h-.25l-.22-.32-.15-.21a.39.39,0,0,0-.11-.09l-.1,0h-.35l0,.69Zm.18-.87.44,0a.56.56,0,0,0,.21,0,.23.23,0,0,0,.12-.09A.25.25,0,0,0,28,46,.26.26,0,0,0,28,45.8a.31.31,0,0,0-.25-.06l-.49,0Z" transform="translate(0.05 0)"/><path class="cls-6" d="M28.5,46.58l.19,0a.38.38,0,0,0,.08.18.31.31,0,0,0,.16.11.5.5,0,0,0,.24,0,.65.65,0,0,0,.21,0,.22.22,0,0,0,.12-.11.2.2,0,0,0,0-.13.17.17,0,0,0-.06-.12.24.24,0,0,0-.14-.08,2.28,2.28,0,0,0-.28-.06,1.63,1.63,0,0,1-.31-.07.45.45,0,0,1-.17-.13.44.44,0,0,1-.07-.19.34.34,0,0,1,0-.22.42.42,0,0,1,.18-.17.83.83,0,0,1,.28-.08.78.78,0,0,1,.31,0,.39.39,0,0,1,.21.14.5.5,0,0,1,.09.24l-.19,0a.31.31,0,0,0-.12-.21.47.47,0,0,0-.28-.06.42.42,0,0,0-.26.09.18.18,0,0,0-.07.17.14.14,0,0,0,.07.13.59.59,0,0,0,.31.09l.35.07a.55.55,0,0,1,.21.14.42.42,0,0,1,.08.22.37.37,0,0,1-.05.23.5.5,0,0,1-.19.19.7.7,0,0,1-.29.08,1,1,0,0,1-.36,0,.55.55,0,0,1-.23-.17A.54.54,0,0,1,28.5,46.58Z" transform="translate(0.05 0)"/><polygon class="cls-6" points="30.1 46.95 29.81 45.43 30.02 45.4 30.13 46.02 30.92 45.87 30.8 45.25 31 45.21 31.29 46.73 31.08 46.77 30.95 46.05 30.17 46.2 30.3 46.91 30.1 46.95"/><rect class="cls-6" x="31.43" y="45.1" width="0.21" height="1.54" transform="translate(-9.45 8.26) rotate(-12.98)"/><path class="cls-6" d="M32.16,46.52,31.74,45l.57-.16a1.39,1.39,0,0,1,.23-.05.44.44,0,0,1,.2,0,.42.42,0,0,1,.16.11.44.44,0,0,1,.1.19.53.53,0,0,1,0,.35.62.62,0,0,1-.4.26l-.38.1.16.61Zm0-.83.38-.11a.36.36,0,0,0,.25-.15.27.27,0,0,0,0-.22.28.28,0,0,0-.09-.14.24.24,0,0,0-.15-.06.63.63,0,0,0-.19,0l-.38.1Z" transform="translate(0.05 0)"/><path class="cls-6" d="M34.08,44.56v-.15a1,1,0,0,1,.26,0c0-.12-.09-.2-.11-.24l.14-.06a1.2,1.2,0,0,1,.07.26,1.84,1.84,0,0,1,.2-.19l.1.12a1.14,1.14,0,0,1-.23.15,1.31,1.31,0,0,1,.24.12l-.08.13a1.65,1.65,0,0,1-.22-.16,2.46,2.46,0,0,1,0,.26l-.15,0a2.21,2.21,0,0,1,.09-.24Z" transform="translate(0.05 0)"/><path class="cls-6" d="M36.57,43l.18-.11.45.78a.85.85,0,0,1,.14.34.43.43,0,0,1-.05.29.66.66,0,0,1-.27.25.61.61,0,0,1-.34.12.47.47,0,0,1-.28-.09,1.16,1.16,0,0,1-.25-.3l-.45-.77.18-.1.45.76a.91.91,0,0,0,.18.24.27.27,0,0,0,.19.06.49.49,0,0,0,.22-.06.42.42,0,0,0,.22-.25A.57.57,0,0,0,37,43.8Z" transform="translate(0.05 0)"/><polygon class="cls-6" points="37.88 44.1 36.98 42.85 37.15 42.72 38.51 43.23 37.8 42.25 37.96 42.13 38.87 43.39 38.7 43.51 37.33 43 38.04 43.98 37.88 44.1"/><polygon class="cls-6" points="39.17 43.16 38.21 41.95 38.37 41.82 39.33 43.03 39.17 43.16"/><path class="cls-6" d="M39.9,42.53l-1.46-.78.16-.14,1,.58.23.14a1.86,1.86,0,0,1-.1-.25L39.34,41l.16-.13.56,1.56Z" transform="translate(0.05 0)"/><polygon class="cls-6" points="40.7 41.86 39.64 40.73 40.45 39.97 40.58 40.1 39.91 40.72 40.24 41.07 40.86 40.49 40.98 40.62 40.36 41.2 40.72 41.59 41.41 40.94 41.54 41.07 40.7 41.86"/><path class="cls-6" d="M41.67,40.85l-1.16-1,.45-.52a.79.79,0,0,1,.24-.2.33.33,0,0,1,.22,0,.51.51,0,0,1,.22.11.4.4,0,0,1,.14.26.55.55,0,0,1-.11.34.43.43,0,0,1,.14,0,.77.77,0,0,1,.26,0l.5.07L42.4,40,42,40l-.26,0a.29.29,0,0,0-.14,0,.19.19,0,0,0-.09,0,.29.29,0,0,0-.08.08l-.16.18.52.45Zm-.51-.73.29-.33a.69.69,0,0,0,.12-.18.23.23,0,0,0-.07-.27.23.23,0,0,0-.19-.06.37.37,0,0,0-.22.14l-.32.37Z" transform="translate(0.05 0)"/><path class="cls-6" d="M42.24,39.43l.09-.17a.41.41,0,0,0,.2.06.38.38,0,0,0,.19-.06.64.64,0,0,0,.17-.16.46.46,0,0,0,.09-.19.22.22,0,0,0,0-.16.2.2,0,0,0-.08-.12.28.28,0,0,0-.13,0l-.15.06-.22.18a1.62,1.62,0,0,1-.25.19.47.47,0,0,1-.22,0,.34.34,0,0,1-.19-.07.37.37,0,0,1-.14-.18.42.42,0,0,1,0-.25.76.76,0,0,1,.12-.26.86.86,0,0,1,.22-.21.47.47,0,0,1,.25-.07.46.46,0,0,1,.25.08l-.11.17a.3.3,0,0,0-.24,0,.36.36,0,0,0-.21.17.43.43,0,0,0-.11.26.22.22,0,0,0,.09.16.15.15,0,0,0,.14,0,.82.82,0,0,0,.27-.19,2.05,2.05,0,0,1,.28-.22.49.49,0,0,1,.24-.07.44.44,0,0,1,.22.07.38.38,0,0,1,.15.2.45.45,0,0,1,0,.26.71.71,0,0,1-.13.28,1,1,0,0,1-.25.25.55.55,0,0,1-.28.07A.51.51,0,0,1,42.24,39.43Z" transform="translate(0.05 0)"/><path class="cls-6" d="M43.42,38.63l-1-1.34.12-.19,1.64.32-.13.19-.48-.1-.36.54.3.4Zm-.29-.72.29-.44-.45-.1-.33-.08a2.29,2.29,0,0,1,.21.23Z" transform="translate(0.05 0)"/><polygon class="cls-6" points="44.34 37.28 42.95 36.59 43.05 36.41 44.26 37.02 44.6 36.34 44.77 36.42 44.34 37.28"/><polygon class="cls-6" points="44.89 36.17 43.48 35.55 43.56 35.36 44.98 35.99 44.89 36.17"/><polygon class="cls-6" points="45.28 35.3 44.02 34.78 43.83 35.26 43.66 35.19 44.12 34.06 44.29 34.12 44.1 34.59 45.36 35.11 45.28 35.3"/><path class="cls-6" d="M45.72,34l-.62-.21-1,.29.08-.24.54-.14.29-.07-.2-.24L44.44,33l.08-.23.65.87.62.2Z" transform="translate(0.05 0)"/><path class="cls-7" d="M59.33,64.43a2.66,2.66,0,0,1-2-.69,2.61,2.61,0,0,1-.69-1.94V57.3h1.06v4.53a1.66,1.66,0,0,0,.41,1.2,1.87,1.87,0,0,0,2.36,0,1.62,1.62,0,0,0,.42-1.2V57.3H62v4.5a2.58,2.58,0,0,1-.7,1.94,2.66,2.66,0,0,1-2,.69" transform="translate(0.05 0)"/><polygon class="cls-7" points="67.64 64.35 67.64 57.3 68.6 57.3 72.3 62.7 72.18 62.83 72.18 57.3 73.22 57.3 73.22 64.35 72.25 64.35 68.56 59.03 68.69 58.9 68.69 64.35 67.64 64.35"/><rect class="cls-7" x="78.93" y="57.3" width="1.06" height="7.05"/><polygon class="cls-7" points="87.39 64.35 84.92 57.3 86.07 57.3 87.89 62.83 89.7 57.3 90.86 57.3 88.39 64.35 87.39 64.35"/><path class="cls-7" d="M95.74,64.35v-7H96.8v7Zm.51-6.11V57.3h4.34v.94Zm0,3.08v-.94H100v.94Zm0,3v-.94h4.34v.94Z" transform="translate(0.05 0)"/><path class="cls-7" d="M105.94,64.35V57.29H107v7.06Zm.46-3v-.94h2.79a.71.71,0,0,0,.59-.3,1.31,1.31,0,0,0,.22-.8,1.33,1.33,0,0,0-.22-.8.71.71,0,0,0-.59-.3H106.4v-.94h2.75a2.08,2.08,0,0,1,1,.26,1.69,1.69,0,0,1,.69.71,2.41,2.41,0,0,1,0,2.14,1.63,1.63,0,0,1-.69.71,2.08,2.08,0,0,1-1,.26Zm3.79,3-1.73-3.2,1.05-.22,1.94,3.42Z" transform="translate(0.05 0)"/><path class="cls-7" d="M118.91,64.43a5.15,5.15,0,0,1-1.51-.22,4,4,0,0,1-1.23-.66l.66-.75a3,3,0,0,0,1,.52,3.39,3.39,0,0,0,1.13.17,2.39,2.39,0,0,0,1.27-.28.9.9,0,0,0,.45-.8h0a.76.76,0,0,0-.23-.61,1.33,1.33,0,0,0-.6-.32,5.76,5.76,0,0,0-.81-.17l-.86-.17a2.57,2.57,0,0,1-.79-.29,1.38,1.38,0,0,1-.59-.56,1.84,1.84,0,0,1-.23-1h0a1.81,1.81,0,0,1,.71-1.52,3.15,3.15,0,0,1,2-.54,4.08,4.08,0,0,1,2.32.73l-.6.79a3,3,0,0,0-1.72-.59,2.1,2.1,0,0,0-1.21.29.93.93,0,0,0-.43.81h0a.76.76,0,0,0,.25.6,1.69,1.69,0,0,0,.66.31c.27.07.55.13.86.19a7.68,7.68,0,0,1,.83.19,2.7,2.7,0,0,1,.76.31,1.58,1.58,0,0,1,.55.57,1.94,1.94,0,0,1,.2.93h0a1.75,1.75,0,0,1-.73,1.51,3.35,3.35,0,0,1-2,.54" transform="translate(0.05 0)"/><rect class="cls-7" x="127.07" y="57.3" width="1.06" height="7.05"/><path class="cls-7" d="M132.75,58.24V57.3h5.34v.94Zm2.14,6.11V57.87H136v6.48Z" transform="translate(0.05 0)"/><polygon class="cls-7" points="147.85 57.3 145.54 61.48 145.54 64.35 144.48 64.35 144.48 61.48 142.18 57.3 143.36 57.3 145.01 60.48 146.67 57.3 147.85 57.3"/><path class="cls-8" d="M47.07,60.86a3.59,3.59,0,0,0,.27-.25c.49-.55.28-1.62-.4-1.73l-.24,0h-2V63H46.9a1,1,0,0,0,.88-.87,1.13,1.13,0,0,0-.71-1.24M45,59.1v0c.61,0,1.19,0,1.78,0a.88.88,0,0,1,0,1.69c-.57,0-1.13,0-1.73,0v-.16h0Zm1.81,3.62c-.59,0-1.19,0-1.81,0V61c.63,0,1.25,0,1.86,0a.82.82,0,0,1,.64.86A.85.85,0,0,1,46.82,62.72Z" transform="translate(0.05 0)"/><path class="cls-9" d="M47.07,60.85a2.27,2.27,0,0,0,.27-.24c.49-.55.28-1.62-.4-1.73l-.25,0h-2V63H46.9a1,1,0,0,0,.87-.88A1.11,1.11,0,0,0,47.07,60.85ZM45,59.1v0c.6,0,1.19,0,1.78,0a.83.83,0,0,1,.61.86.87.87,0,0,1-.66.83c-.57,0-1.14,0-1.73,0V59.1Zm1.81,3.62c-.6,0-1.19,0-1.81,0V61c.63,0,1.25,0,1.86,0a.8.8,0,0,1,.63.86A.83.83,0,0,1,46.82,62.72Z" transform="translate(0.05 0)"/><path class="cls-1" d="M151.56,57.23l.32-.16c1.69,2.74,1.88,4.85,0,7.52l-.31-.18c1.65-2.78,1.56-4.13,0-7.18" transform="translate(0.05 0)"/><path class="cls-10" d="M151.56,57.23l.32-.16c1.69,2.74,1.88,4.85,0,7.52l-.3-.19C153.22,61.62,153.13,60.27,151.56,57.23Z" transform="translate(0.05 0)"/><path class="cls-1" d="M1.31,57.08l.31.15A8.4,8.4,0,0,0,.4,60.8a6.22,6.22,0,0,0,1.23,3.58l-.29.21c-1.77-1.8-1.78-5.26,0-7.51" transform="translate(0.05 0)"/><path class="cls-10" d="M1.31,57.08l.31.15A8.27,8.27,0,0,0,.4,60.8a6.24,6.24,0,0,0,1.23,3.58l-.3.2C-.44,62.78-.45,59.33,1.31,57.08Z" transform="translate(0.05 0)"/><path class="cls-8" d="M41.18,60.9a2,2,0,1,1-2-2.12,2,2,0,0,1,2,2.12m-3.62,0A1.78,1.78,0,0,0,39,62.74a1.65,1.65,0,0,0,1.85-1.32,1.8,1.8,0,0,0-1.71-2.36A1.77,1.77,0,0,0,37.56,60.89Z" transform="translate(0.05 0)"/><path class="cls-9" d="M41.18,60.9a2,2,0,1,1-2-2.12A2,2,0,0,1,41.18,60.9Zm-3.63,0A1.8,1.8,0,0,0,39,62.74a1.65,1.65,0,0,0,1.85-1.32,1.82,1.82,0,0,0-1.71-2.37A1.8,1.8,0,0,0,37.55,60.89Z" transform="translate(0.05 0)"/><path class="cls-1" d="M11.29,62.87l0,0v0h0" transform="translate(0.05 0)"/><path class="cls-8" d="M34.65,59.54v0" transform="translate(0.05 0)"/><path class="cls-9" d="M34.65,59.54v2C34.64,60.85,34.65,60.19,34.65,59.54Z" transform="translate(0.05 0)"/><path class="cls-8" d="M8.64,59.09v1.62h2.08V61H8.63v1.75h2.42V63H8.33V58.81h2.72v.27H8.64" transform="translate(0.05 0)"/><path class="cls-9" d="M8.63,59.09v1.62h2.08V61H8.63v1.75h2.42V63H8.33v-4.2h2.72v.27H8.63Z" transform="translate(0.05 0)"/><path class="cls-8" d="M6.69,60A1.66,1.66,0,0,0,6,59.08a1.41,1.41,0,0,0-.51-.18,9.2,9.2,0,0,0-1.16-.09H3.48V63H5A2.2,2.2,0,0,0,6,62.74H6a1.76,1.76,0,0,0,.77-1,2.51,2.51,0,0,0,0-1.83m-.26,1.76a1.44,1.44,0,0,1-1.24,1l-.52,0H3.78V61h0v-.28h0V59.09H4.7a5.07,5.07,0,0,1,.55,0,1.47,1.47,0,0,1,1.23,1.11A2.27,2.27,0,0,1,6.43,61.72Z" transform="translate(0.05 0)"/><path class="cls-9" d="M6.69,60a1.67,1.67,0,0,0-.7-.88,1.41,1.41,0,0,0-.51-.18,8.91,8.91,0,0,0-1.15-.09H3.48V63H5A2.06,2.06,0,0,0,6,62.74a1.81,1.81,0,0,0,.77-1A2.51,2.51,0,0,0,6.69,60Zm-.26,1.76a1.42,1.42,0,0,1-1.24,1,4.41,4.41,0,0,1-.52,0H3.78V61h0v-.28h0V59.09h.9a5.25,5.25,0,0,1,.56,0,1.45,1.45,0,0,1,1.23,1.11A2.27,2.27,0,0,1,6.43,61.72Z" transform="translate(0.05 0)"/><path class="cls-8" d="M30,60a1.72,1.72,0,0,0-.7-.88,1.41,1.41,0,0,0-.51-.18,8.92,8.92,0,0,0-1.16-.09h-.84V63h1.55a2.15,2.15,0,0,0,.91-.26h0a1.75,1.75,0,0,0,.76-1A2.51,2.51,0,0,0,30,60m-.26,1.76a1.45,1.45,0,0,1-1.24,1l-.52,0h-.89V61h0v-.28h0V59.09H28a4.93,4.93,0,0,1,.55,0,1.46,1.46,0,0,1,1.23,1.11A2.21,2.21,0,0,1,29.74,61.72Z" transform="translate(0.05 0)"/><path class="cls-9" d="M30,60a1.72,1.72,0,0,0-.7-.88,1.41,1.41,0,0,0-.51-.18,9.2,9.2,0,0,0-1.16-.09h-.84V63h1.55a2.05,2.05,0,0,0,.91-.25h0a1.72,1.72,0,0,0,.77-1A2.57,2.57,0,0,0,30,60Zm-.26,1.76a1.44,1.44,0,0,1-1.24,1,4.53,4.53,0,0,1-.52,0h-.89V61h0v-.28h0V59.09H28a4.93,4.93,0,0,1,.55,0,1.43,1.43,0,0,1,1.23,1.11A2.27,2.27,0,0,1,29.74,61.72Z" transform="translate(0.05 0)"/><path class="cls-8" d="M12.84,59.11v1.62h2.08V61H12.83v1.75h2.43V63H12.54V58.83h2.72v.27H12.84" transform="translate(0.05 0)"/><path class="cls-9" d="M12.84,59.1v1.63h2.08V61H12.83v1.75h2.42V63H12.53V58.82h2.72v.28H12.84Z" transform="translate(0.05 0)"/><path class="cls-8" d="M22.91,59.09v1.62H25V61H22.9v1.75h2.43V63H22.61V58.81h2.72v.27H22.91" transform="translate(0.05 0)"/><path class="cls-9" d="M22.91,59.09v1.62H25V61H22.9v1.75h2.42V63H22.6v-4.2h2.72v.27H22.91Z" transform="translate(0.05 0)"/><path class="cls-8" d="M49.58,59.09v1.62h2.09V61H49.58v1.75H52V63H49.28V58.81H52v.27H49.58" transform="translate(0.05 0)"/><path class="cls-9" d="M49.58,59.09v1.62h2.08V61H49.57v1.75H52V63H49.28v-4.2H52v.27H49.58Z" transform="translate(0.05 0)"/><polygon class="cls-8" points="36.53 58.81 36.53 59.06 34.99 59.06 34.99 63.04 34.7 63.04 34.7 59.06 33.13 59.06 33.13 58.81 36.53 58.81"/><polygon class="cls-9" points="36.53 58.81 36.53 59.05 34.98 59.05 34.98 63.03 34.69 63.03 34.69 59.05 33.13 59.05 33.13 58.81 36.53 58.81"/><polygon class="cls-8" points="21 58.81 21 63.03 20.67 63.03 20.67 59.42 19.09 61.96 19.09 61.96 19.09 61.96 18.9 62.27 18.71 61.96 18.71 61.96 18.7 61.96 17.13 59.43 17.13 63.04 16.8 63.04 16.8 58.81 17.13 58.81 17.13 58.81 18.9 61.65 20.67 58.81 20.67 58.81 20.67 58.81 21 58.81"/><polygon class="cls-9" points="21 58.81 21 63.03 20.67 63.03 20.67 59.42 19.09 61.96 19.09 61.96 19.09 61.96 18.9 62.27 18.7 61.96 18.71 61.96 18.7 61.96 17.13 59.43 17.13 63.03 16.8 63.03 16.8 58.81 17.13 58.81 17.13 58.81 18.9 61.65 20.67 58.81 20.67 58.81 20.67 58.81 21 58.81"/><polygon class="cls-11" points="56.73 0 72.08 0 72.08 18.47 95.33 0 122.31 0 83.11 27.46 122.31 54.11 94.24 54.11 72.08 35.69 72.08 54.11 56.73 54.11 56.73 0"/><polygon class="cls-11" points="106.75 12.1 122.31 1.35 122.31 39.54 160.24 39.59 149.27 54.11 124.19 54.11 106.75 42.42 106.75 12.1"/><polygon class="cls-12" points="56.73 1.51 67.62 1.84 56.73 7.84 56.73 1.51"/><polygon class="cls-13" points="56.73 24.71 84.3 26.64 83.11 27.46 89.58 31.85 65.59 29.96 56.73 36.92 56.73 24.71"/><polygon class="cls-13" points="84.97 8.22 88 24.04 105.22 11.97 106.59 0 95.31 0 84.97 8.22"/><polygon class="cls-13" points="106.75 15.36 122.31 12.83 122.31 37.22 112.2 46.08 106.75 42.42 106.75 15.36"/><polygon class="cls-13" points="92.39 33.76 82.36 44.28 94.24 54.11 103.03 54.11 111.44 46.7 92.39 33.76"/><polygon class="cls-13" points="56.73 45.32 72.08 51.67 72.08 54.11 56.73 54.11 56.73 45.32"/><polygon class="cls-13" points="142.28 39.57 160.24 39.59 149.27 54.11 136.79 54.09 142.28 39.57"/><path class="cls-14" d="M51.37,31.72a.39.39,0,0,1,.4-.39c1-.13,2-.29,3.09-.44v-6l-3-.55c-.21,0-.32-.1-.34-.32a23.05,23.05,0,0,0-1.32-5.1.33.33,0,0,1,.11-.46c.34-.25.66-.53,1-.8s.9-.74,1.35-1.13h0l-1.41-2.4-.11-.19-1.5-2.53-.68.26L48.1,12l-.19.08-.57.22h0l-.39.16a.43.43,0,0,1-.61-.15,20.31,20.31,0,0,0-1.54-1.8c-.63-.65-1.32-1.24-2-1.84-.17-.14-.22-.26-.11-.45s.12-.28.18-.42c.31-.78.63-1.56,1-2.35L38.75,2.3c-.7.81-1.38,1.59-2,2.38a.37.37,0,0,1-.49.13,22.22,22.22,0,0,0-5-1.35c-.28,0-.36-.16-.39-.41-.15-1-.31-2-.47-2.95h-6c-.16,1-.33,2-.47,2.93,0,.31-.17.4-.46.48-1.47.36-2.94.74-4.4,1.16-.36.1-.55.11-.79-.21C17.69,3.69,17.06,3,16.44,2.2l-5.15,3,.06.16.54,1.42.25.68c.09.2.16.41.25.61s.08.31-.11.45a20,20,0,0,0-3.7,3.76.4.4,0,0,1-.57.15c-.81-.36-1.63-.7-2.46-1-.15-.06-.3-.2-.45.06C4.42,12.64,3.71,13.86,3,15.08c-.25.45-.52.9-.79,1.37.8.65,1.58,1.3,2.37,1.93.21.16.22.29.15.54-.4,1.31-.76,2.62-1.13,3.94a.37.37,0,0,0,0,.15h0c-.11.4-.34,1-.66,1l-.68.11-.56.1L0,24.54v6c1.05.16,2.06.33,3.07.47.26,0,.36.12.4.39a23.54,23.54,0,0,0,1.44,5.19.33.33,0,0,1-.13.45l-.14.11c-.55.45-1.1.91-1.65,1.35l-.42.35h0l-.21.17,3,5.19L6.1,44h0l1.52-.59.65-.26a.42.42,0,0,1,.55.14c1,1,2,2.06,3.07,3a.54.54,0,0,1,.17.73C11.68,48,11.3,49,10.9,50L16,53c.74-.88,1.46-1.71,2.15-2.56a.47.47,0,0,1,.58-.17c1.39.42,2.79.83,4.2,1.2.86.22.87.18,1,1.06s.25,1.61.38,2.42h6c.16-1,.34-1.93.47-2.88a.48.48,0,0,1,.47-.48A21.48,21.48,0,0,0,36,50.38a.43.43,0,0,1,.6.18c.63.84,1.28,1.68,1.94,2.53l5.23-2.83c-.05-.15-.09-.29-.14-.42-.33-.94-.65-1.88-1-2.81a.42.42,0,0,1,.14-.55c1-1,2.1-2,3.11-3,.56-.57.53-.6,1.27-.32l2.51,1c1-1.76,2-3.49,3-5.23-.79-.64-1.54-1.27-2.32-1.87a.5.5,0,0,1-.17-.7,22,22,0,0,0,1.26-4.57M3.31,28.59H2.46s-1.37-.24-1-2v0a2,2,0,0,0,1.23,1c.47.08,1.05-.14,1.71-1C4.36,26.55,4.61,28.31,3.31,28.59ZM40.1,4.35a1.25,1.25,0,0,1,.25,2.47h0V7h.52v.46h-.52v.7h-.45v-.7h-.52V7h.52V6.83h0a1.25,1.25,0,0,1,.26-2.47ZM26.4,1.83h0l.31-.26a.84.84,0,0,0,1.28,0l.29.29a1.63,1.63,0,0,1-.41.33,1,1,0,0,1-.27,2v.43h.52V5H27.6v.67h-.41V5h-.52v-.4h.52V4.16a1,1,0,0,1-.35-1.9A1.46,1.46,0,0,1,26.4,1.83ZM14.05,4.66a1.28,1.28,0,0,1,.93.23,1.7,1.7,0,0,1,.6.88,1.64,1.64,0,0,1-.31,1.28H16V6.36h.36V7H17V6.9h.47v.55H16.34v.44h.08v.47h-.6V7.89H16V7.47H14.2V7a.83.83,0,0,0,1-1,.15.15,0,0,0,0-.07.92.92,0,0,0-1.12-.84ZM4.61,15.25a1,1,0,0,1,1.63-.8l.36-.34-.18-.19.88-.13L7,14.62l-.19-.18-.33.33a1,1,0,0,1,.12.48,1,1,0,1,1-2,0ZM8.49,40.74H7.23a1,1,0,0,1-.55.64l-.12,0v1H6.13v-1a1,1,0,0,1-.79-.71h-1v-.46h1A.86.86,0,0,1,5.42,40l-.69-.69L5.06,39l.67.68.09-.06a1.12,1.12,0,0,1,.31-.1v-.92h.43v.95a1.07,1.07,0,0,1,.38.2L7.66,39l.32.33-.78.77a.88.88,0,0,1,0,.15H8.49Zm18.94,7.78A21.06,21.06,0,1,1,48.49,27.46,21.06,21.06,0,0,1,27.43,48.52Zm22.86-8.36c0,.15,0,.33,0,.5a.35.35,0,0,1,.08.22.36.36,0,0,1-.72,0,.36.36,0,0,1,.19-.31,1.49,1.49,0,0,0-.21-1.41,1.17,1.17,0,0,0-1.19-.55,1.4,1.4,0,0,0-1,1.21,1.36,1.36,0,0,0,0,.72.36.36,0,0,1-.09.7h0a.33.33,0,0,1-.19-.06h0a.37.37,0,0,1-.15-.3.33.33,0,0,1,0-.17,2.61,2.61,0,0,1-.08-.88,1.81,1.81,0,0,1,1.78-1.66A1.87,1.87,0,0,1,50.29,40.16Zm-.88-25a.31.31,0,0,0-.48,0l-.13.11-.35.28v1.07h-.4V13.72l0,0h-.19v-.43h.81v.43h-.2V15l.17-.11.37-.23a.59.59,0,0,1,.78.34c.29.57.44,1.49,1.11.82l.22.31a1.63,1.63,0,0,1-.47.28C49.65,16.51,49.62,15.4,49.41,15.15Zm1.05,11.31a.35.35,0,0,1,.35.35.35.35,0,0,1-.19.32,1.53,1.53,0,0,0,.22,1.41,1.18,1.18,0,0,0,1.19.55,1.43,1.43,0,0,0,1-1.21,1.59,1.59,0,0,0,0-.72.36.36,0,0,1,.09-.7h0a.31.31,0,0,1,.19.06h0a.34.34,0,0,1,.16.29.53.53,0,0,1,0,.18,2.6,2.6,0,0,1,.07.88,1.78,1.78,0,0,1-1.77,1.65,1.85,1.85,0,0,1-1.6-2c0-.15,0-.33,0-.5a.35.35,0,0,1-.07-.23A.36.36,0,0,1,50.46,26.46ZM41,5.59a.88.88,0,1,1-1.75,0,.88.88,0,0,1,1.75,0Z" transform="translate(0.05 0)"/><path class="cls-14" d="M4.36,26.55c-.66.87-1.24,1.09-1.7,1a2,2,0,0,1-1.24-1v0c-.32,1.76,1,2,1,2h.85c1.3-.28,1.05-2,1.05-2" transform="translate(0.05 0)"/><path class="cls-14" d="M6.42,13.92l.18.19-.36.34a1,1,0,1,0-.62,1.82,1,1,0,0,0,1-1,1.14,1.14,0,0,0-.12-.48l.33-.33.18.18.27-.83Z" transform="translate(0.05 0)"/><path class="cls-14" d="M7.25,40.28c0-.05,0-.1,0-.14L8,39.36,7.66,39l-.72.72a.91.91,0,0,0-.37-.21v-.95H6.13v.92a1.12,1.12,0,0,0-.31.1l-.09.06L5.06,39l-.33.33.69.69a1,1,0,0,0-.09.27h-1v.47h1a1,1,0,0,0,.79.7v1h.44v-1l.12,0a1,1,0,0,0,.54-.63H8.49v-.47Z" transform="translate(0.05 0)"/><path class="cls-14" d="M17.49,7.45V6.9H17V7h-.68V6.36H16v.7h-.7a1.67,1.67,0,0,0,.31-1.29,1.7,1.7,0,0,0-.6-.88,1.28,1.28,0,0,0-.93-.23v.47A.93.93,0,0,1,15.18,6V6a.83.83,0,0,1-1,1v.48H16v.42h-.14v.47h.6V7.9h-.08V7.45Z" transform="translate(0.05 0)"/><path class="cls-14" d="M27.6,4.16a1,1,0,0,0,.84-1,1,1,0,0,0-.57-.92,1.93,1.93,0,0,0,.41-.33L28,1.59a.84.84,0,0,1-1.28,0l-.3.25v0a1.32,1.32,0,0,0,.44.42,1,1,0,0,0,.35,1.9v.43h-.53V5h.53v.67h.4V5h.53v-.4H27.6Z" transform="translate(0.05 0)"/><path class="cls-14" d="M50.24,40.67c0-.18,0-.35,0-.51a1.87,1.87,0,0,0-1.6-2,1.81,1.81,0,0,0-1.78,1.66,2.59,2.59,0,0,0,.08.88.33.33,0,0,0,0,.17.36.36,0,0,0,.15.3h0a.33.33,0,0,0,.19.06h0a.36.36,0,0,0,.09-.7,1.36,1.36,0,0,1,0-.72,1.4,1.4,0,0,1,1-1.21,1.17,1.17,0,0,1,1.19.55,1.49,1.49,0,0,1,.21,1.41.36.36,0,0,0-.19.31.36.36,0,0,0,.72,0,.3.3,0,0,0-.08-.21" transform="translate(0.05 0)"/><path class="cls-14" d="M50.88,15.81c-.67.67-.82-.25-1.11-.82a.59.59,0,0,0-.78-.34l-.37.23-.17.11v-1.3h.2v-.43h-.81v.43H48l0,0v2.87h.4V15.52l.35-.28.13-.11a.31.31,0,0,1,.48,0c.21.25.24,1.36,1.22,1.25a1.63,1.63,0,0,0,.47-.28Z" transform="translate(0.05 0)"/><path class="cls-14" d="M53.43,27a.53.53,0,0,0,0-.17.35.35,0,0,0-.16-.3h0a.31.31,0,0,0-.19-.06h0a.36.36,0,0,0-.36.36.35.35,0,0,0,.27.34,1.59,1.59,0,0,1,0,.72,1.43,1.43,0,0,1-1,1.21,1.18,1.18,0,0,1-1.19-.55,1.53,1.53,0,0,1-.22-1.41.34.34,0,0,0,.19-.31.36.36,0,1,0-.71,0,.34.34,0,0,0,.07.22c0,.17,0,.35,0,.5a1.86,1.86,0,0,0,1.6,2,1.8,1.8,0,0,0,1.77-1.66,2.6,2.6,0,0,0-.07-.88" transform="translate(0.05 0)"/><path class="cls-14" d="M53.43,27a.53.53,0,0,0,0-.17.35.35,0,0,0-.16-.3h0a.31.31,0,0,0-.19-.06h0a.36.36,0,0,0-.36.36.35.35,0,0,0,.27.34,1.59,1.59,0,0,1,0,.72,1.43,1.43,0,0,1-1,1.21,1.18,1.18,0,0,1-1.19-.55,1.53,1.53,0,0,1-.22-1.41.34.34,0,0,0,.19-.31.36.36,0,1,0-.71,0,.34.34,0,0,0,.07.22c0,.17,0,.35,0,.5a1.86,1.86,0,0,0,1.6,2,1.8,1.8,0,0,0,1.77-1.66,2.6,2.6,0,0,0-.07-.88" transform="translate(0.05 0)"/><path class="cls-14" d="M48.05,13.72v2.87h.4V15.52l.35-.28.13-.11a.31.31,0,0,1,.48,0c.21.25.24,1.36,1.22,1.25a1.63,1.63,0,0,0,.47-.28l-.22-.31c-.67.67-.82-.25-1.11-.82a.59.59,0,0,0-.78-.34l-.37.23-.17.11v-1.3h.2v-.43h-.81v.43H48Z" transform="translate(0.05 0)"/><path class="cls-14" d="M50.29,40.16a1.87,1.87,0,0,0-1.6-2,1.81,1.81,0,0,0-1.78,1.66,2.59,2.59,0,0,0,.08.88.33.33,0,0,0,0,.17.36.36,0,0,0,.15.3h0a.33.33,0,0,0,.19.06h0a.36.36,0,0,0,.09-.7,1.36,1.36,0,0,1,0-.72,1.4,1.4,0,0,1,1-1.21,1.17,1.17,0,0,1,1.19.55,1.49,1.49,0,0,1,.21,1.41.36.36,0,0,0-.19.31.36.36,0,0,0,.72,0,.3.3,0,0,0-.08-.21c0-.18,0-.35,0-.51" transform="translate(0.05 0)"/><path class="cls-14" d="M28.44,3.14a1,1,0,0,0-.57-.92,1.93,1.93,0,0,0,.41-.33L28,1.59a.84.84,0,0,1-1.28,0l-.3.25v0a1.32,1.32,0,0,0,.44.42,1,1,0,0,0,.35,1.9v.43h-.53V5h.53v.67h.4V5h.53v-.4H27.6V4.16a1,1,0,0,0,.84-1" transform="translate(0.05 0)"/><path class="cls-14" d="M17,7h-.68V6.36H16v.7h-.7a1.67,1.67,0,0,0,.31-1.29,1.7,1.7,0,0,0-.6-.88,1.28,1.28,0,0,0-.93-.23v.47A.93.93,0,0,1,15.18,6V6a.83.83,0,0,1-1,1v.48H16v.42h-.14v.47h.6V7.9h-.08V7.45h1.15V6.9H17Z" transform="translate(0.05 0)"/><path class="cls-14" d="M7.21,40.14,8,39.36,7.66,39l-.72.72a.91.91,0,0,0-.37-.21v-.95H6.13v.92a1.12,1.12,0,0,0-.31.1l-.09.06L5.06,39l-.33.33.69.69a1,1,0,0,0-.09.27h-1v.47h1a1,1,0,0,0,.79.7v1h.44v-1l.12,0a1,1,0,0,0,.54-.63H8.49v-.47H7.25c0-.05,0-.1,0-.14" transform="translate(0.05 0)"/><path class="cls-14" d="M5.62,16.27a1,1,0,0,0,1-1,1.14,1.14,0,0,0-.12-.48l.33-.33.18.18.27-.83-.88.13.18.19-.36.34a1,1,0,1,0-.62,1.82" transform="translate(0.05 0)"/><path class="cls-14" d="M4.36,26.55c-.66.87-1.24,1.09-1.7,1a2,2,0,0,1-1.24-1v0c-.32,1.76,1,2,1,2h.85c1.3-.28,1.05-2,1.05-2" transform="translate(0.05 0)"/><path class="cls-3" d="M53.43,27a.53.53,0,0,0,0-.17.35.35,0,0,0-.16-.3h0a.31.31,0,0,0-.19-.06h0a.36.36,0,0,0-.36.36.35.35,0,0,0,.27.34,1.59,1.59,0,0,1,0,.72,1.43,1.43,0,0,1-1,1.21,1.18,1.18,0,0,1-1.19-.55,1.53,1.53,0,0,1-.22-1.41.34.34,0,0,0,.19-.31.36.36,0,1,0-.71,0,.34.34,0,0,0,.07.22c0,.17,0,.35,0,.5a1.86,1.86,0,0,0,1.6,2,1.8,1.8,0,0,0,1.77-1.66,2.6,2.6,0,0,0-.07-.88" transform="translate(0.05 0)"/><path class="cls-3" d="M48.05,13.72v2.87h.4V15.52l.35-.28.13-.11a.31.31,0,0,1,.48,0c.21.25.24,1.36,1.22,1.25a1.63,1.63,0,0,0,.47-.28l-.22-.31c-.67.67-.82-.25-1.11-.82a.59.59,0,0,0-.78-.34l-.37.23-.17.11v-1.3h.2v-.43h-.81v.43H48Z" transform="translate(0.05 0)"/><path class="cls-3" d="M50.29,40.16a1.87,1.87,0,0,0-1.6-2,1.81,1.81,0,0,0-1.78,1.66,2.59,2.59,0,0,0,.08.88.33.33,0,0,0,0,.17.36.36,0,0,0,.15.3h0a.33.33,0,0,0,.19.06h0a.36.36,0,0,0,.09-.7,1.36,1.36,0,0,1,0-.72,1.4,1.4,0,0,1,1-1.21,1.17,1.17,0,0,1,1.19.55,1.49,1.49,0,0,1,.21,1.41.36.36,0,0,0-.19.31.36.36,0,0,0,.72,0,.3.3,0,0,0-.08-.21c0-.18,0-.35,0-.51" transform="translate(0.05 0)"/><path class="cls-3" d="M40.35,6.82a1.25,1.25,0,1,0-.51,0h0V7h-.52v.45h.52v.7h.45v-.7h.52V7h-.52V6.83h0m-.26-.35A.88.88,0,1,1,41,5.6.87.87,0,0,1,40.09,6.47Z" transform="translate(0.05 0)"/><path class="cls-3" d="M28.44,3.14a1,1,0,0,0-.57-.92,1.93,1.93,0,0,0,.41-.33L28,1.59a.84.84,0,0,1-1.28,0l-.3.25v0a1.32,1.32,0,0,0,.44.42,1,1,0,0,0,.35,1.9v.43h-.53V5h.53v.67h.4V5h.53v-.4H27.6V4.16a1,1,0,0,0,.84-1" transform="translate(0.05 0)"/><path class="cls-3" d="M17,7h-.68V6.36H16v.7h-.7a1.67,1.67,0,0,0,.31-1.29,1.7,1.7,0,0,0-.6-.88,1.28,1.28,0,0,0-.93-.23v.47A.93.93,0,0,1,15.18,6V6a.83.83,0,0,1-1,1v.48H16v.42h-.14v.47h.6V7.9h-.08V7.45h1.15V6.9H17Z" transform="translate(0.05 0)"/><path class="cls-3" d="M7.21,40.14,8,39.36,7.66,39l-.72.72a.91.91,0,0,0-.37-.21v-.95H6.13v.92a1.12,1.12,0,0,0-.31.1l-.09.06L5.06,39l-.33.33.69.69a1,1,0,0,0-.09.27h-1v.47h1a1,1,0,0,0,.79.7v1h.44v-1l.12,0a1,1,0,0,0,.54-.63H8.49v-.47H7.25c0-.05,0-.1,0-.14" transform="translate(0.05 0)"/><path class="cls-3" d="M5.62,16.27a1,1,0,0,0,1-1,1.14,1.14,0,0,0-.12-.48l.33-.33.18.18.27-.83-.88.13.18.19-.36.34a1,1,0,1,0-.62,1.82" transform="translate(0.05 0)"/><path class="cls-3" d="M4.36,26.55c-.66.87-1.24,1.09-1.7,1a2,2,0,0,1-1.24-1v0c-.32,1.76,1,2,1,2h.85c1.3-.28,1.05-2,1.05-2" transform="translate(0.05 0)"/></svg>